<mxfile host="app.diagrams.net" modified="2021-04-25T12:11:20.158Z" agent="5.0 (Windows NT 10.0; Win64; x64) AppleWebKit/537.36 (KHTML, like Gecko) Chrome/89.0.4389.105 YaBrowser/21.3.2.175 Yowser/2.5 Safari/537.36" etag="nEJfCLp4P8hdpSQtGABt" version="14.6.3" type="github">
  <diagram name="Page-1" id="e7e014a7-5840-1c2e-5031-d8a46d1fe8dd">
    <mxGraphModel dx="1240" dy="739" grid="1" gridSize="10" guides="1" tooltips="1" connect="1" arrows="1" fold="1" page="1" pageScale="1" pageWidth="1169" pageHeight="826" background="#ffffff" math="0" shadow="0">
      <root>
        <mxCell id="0" />
        <mxCell id="1" parent="0" />
        <mxCell id="i6zqhA7brKH_pSu2NshU-42" style="edgeStyle=orthogonalEdgeStyle;rounded=0;orthogonalLoop=1;jettySize=auto;html=1;" edge="1" parent="1" source="i6zqhA7brKH_pSu2NshU-41" target="i6zqhA7brKH_pSu2NshU-43">
          <mxGeometry relative="1" as="geometry">
            <mxPoint x="620" y="120" as="targetPoint" />
          </mxGeometry>
        </mxCell>
        <mxCell id="i6zqhA7brKH_pSu2NshU-41" value="" style="ellipse;fillColor=#000000;strokeColor=#FF0000;" vertex="1" parent="1">
          <mxGeometry x="600" y="40" width="40" height="40" as="geometry" />
        </mxCell>
        <mxCell id="i6zqhA7brKH_pSu2NshU-44" style="edgeStyle=orthogonalEdgeStyle;rounded=0;orthogonalLoop=1;jettySize=auto;html=1;exitX=0.5;exitY=1;exitDx=0;exitDy=0;" edge="1" parent="1" source="i6zqhA7brKH_pSu2NshU-43" target="i6zqhA7brKH_pSu2NshU-45">
          <mxGeometry relative="1" as="geometry">
            <mxPoint x="620.1764705882354" y="200" as="targetPoint" />
          </mxGeometry>
        </mxCell>
        <mxCell id="i6zqhA7brKH_pSu2NshU-43" value="ВВОД X, N" style="rounded=1;whiteSpace=wrap;html=1;arcSize=50;" vertex="1" parent="1">
          <mxGeometry x="560" y="120" width="120" height="40" as="geometry" />
        </mxCell>
        <mxCell id="i6zqhA7brKH_pSu2NshU-46" style="edgeStyle=orthogonalEdgeStyle;rounded=0;orthogonalLoop=1;jettySize=auto;html=1;exitX=1;exitY=0.5;exitDx=0;exitDy=0;" edge="1" parent="1" source="i6zqhA7brKH_pSu2NshU-45">
          <mxGeometry relative="1" as="geometry">
            <mxPoint x="720" y="280" as="targetPoint" />
          </mxGeometry>
        </mxCell>
        <mxCell id="i6zqhA7brKH_pSu2NshU-51" style="edgeStyle=orthogonalEdgeStyle;rounded=0;orthogonalLoop=1;jettySize=auto;html=1;" edge="1" parent="1" source="i6zqhA7brKH_pSu2NshU-45">
          <mxGeometry relative="1" as="geometry">
            <mxPoint x="620" y="280" as="targetPoint" />
          </mxGeometry>
        </mxCell>
        <mxCell id="i6zqhA7brKH_pSu2NshU-45" value="" style="rhombus;whiteSpace=wrap;html=1;strokeColor=#000000;" vertex="1" parent="1">
          <mxGeometry x="600" y="200" width="40" height="40" as="geometry" />
        </mxCell>
        <mxCell id="i6zqhA7brKH_pSu2NshU-47" value="n&amp;lt;0" style="text;html=1;align=center;verticalAlign=middle;resizable=0;points=[];autosize=1;strokeColor=none;" vertex="1" parent="1">
          <mxGeometry x="660" y="200" width="40" height="20" as="geometry" />
        </mxCell>
        <mxCell id="i6zqhA7brKH_pSu2NshU-49" style="edgeStyle=orthogonalEdgeStyle;rounded=0;orthogonalLoop=1;jettySize=auto;html=1;" edge="1" parent="1" source="i6zqhA7brKH_pSu2NshU-48">
          <mxGeometry relative="1" as="geometry">
            <mxPoint x="725" y="359.9999999999999" as="targetPoint" />
          </mxGeometry>
        </mxCell>
        <mxCell id="i6zqhA7brKH_pSu2NshU-48" value="Вывод: Неверное значение N" style="rounded=1;whiteSpace=wrap;html=1;strokeColor=#000000;arcSize=50;" vertex="1" parent="1">
          <mxGeometry x="680" y="280" width="90" height="40" as="geometry" />
        </mxCell>
        <mxCell id="i6zqhA7brKH_pSu2NshU-50" value="" style="ellipse;html=1;shape=endState;fillColor=#000000;strokeColor=#FF0000;" vertex="1" parent="1">
          <mxGeometry x="710" y="360" width="30" height="30" as="geometry" />
        </mxCell>
        <mxCell id="i6zqhA7brKH_pSu2NshU-53" style="edgeStyle=orthogonalEdgeStyle;rounded=0;orthogonalLoop=1;jettySize=auto;html=1;exitX=0.5;exitY=1;exitDx=0;exitDy=0;" edge="1" parent="1" source="i6zqhA7brKH_pSu2NshU-52" target="i6zqhA7brKH_pSu2NshU-54">
          <mxGeometry relative="1" as="geometry">
            <mxPoint x="620.3333333333335" y="360" as="targetPoint" />
          </mxGeometry>
        </mxCell>
        <mxCell id="i6zqhA7brKH_pSu2NshU-52" value="EPS := 1e-10" style="rounded=1;whiteSpace=wrap;html=1;arcSize=50;" vertex="1" parent="1">
          <mxGeometry x="580" y="280" width="80" height="20" as="geometry" />
        </mxCell>
        <mxCell id="i6zqhA7brKH_pSu2NshU-55" style="edgeStyle=orthogonalEdgeStyle;rounded=0;orthogonalLoop=1;jettySize=auto;html=1;" edge="1" parent="1" source="i6zqhA7brKH_pSu2NshU-54" target="i6zqhA7brKH_pSu2NshU-56">
          <mxGeometry relative="1" as="geometry">
            <mxPoint x="620.0050000000001" y="400" as="targetPoint" />
          </mxGeometry>
        </mxCell>
        <mxCell id="i6zqhA7brKH_pSu2NshU-54" value="k=0 a=x s=0 b=(x/2)^n" style="rounded=1;whiteSpace=wrap;html=1;strokeColor=#000000;arcSize=50;" vertex="1" parent="1">
          <mxGeometry x="570.1700000000001" y="330" width="99.67" height="30" as="geometry" />
        </mxCell>
        <mxCell id="i6zqhA7brKH_pSu2NshU-57" style="edgeStyle=orthogonalEdgeStyle;rounded=0;orthogonalLoop=1;jettySize=auto;html=1;" edge="1" parent="1" source="i6zqhA7brKH_pSu2NshU-56">
          <mxGeometry relative="1" as="geometry">
            <mxPoint x="620" y="480" as="targetPoint" />
          </mxGeometry>
        </mxCell>
        <mxCell id="i6zqhA7brKH_pSu2NshU-73" style="edgeStyle=orthogonalEdgeStyle;rounded=0;orthogonalLoop=1;jettySize=auto;html=1;entryX=0;entryY=0.5;entryDx=0;entryDy=0;" edge="1" parent="1" source="i6zqhA7brKH_pSu2NshU-56" target="i6zqhA7brKH_pSu2NshU-64">
          <mxGeometry relative="1" as="geometry">
            <mxPoint x="480" y="740" as="targetPoint" />
            <Array as="points">
              <mxPoint x="480" y="420" />
              <mxPoint x="480" y="740" />
            </Array>
          </mxGeometry>
        </mxCell>
        <mxCell id="i6zqhA7brKH_pSu2NshU-56" value="" style="rhombus;whiteSpace=wrap;html=1;strokeColor=#000000;" vertex="1" parent="1">
          <mxGeometry x="600" y="400" width="40" height="40" as="geometry" />
        </mxCell>
        <mxCell id="i6zqhA7brKH_pSu2NshU-59" style="edgeStyle=orthogonalEdgeStyle;rounded=0;orthogonalLoop=1;jettySize=auto;html=1;exitX=0.5;exitY=1;exitDx=0;exitDy=0;" edge="1" parent="1" source="i6zqhA7brKH_pSu2NshU-58" target="i6zqhA7brKH_pSu2NshU-60">
          <mxGeometry relative="1" as="geometry">
            <mxPoint x="620" y="560" as="targetPoint" />
          </mxGeometry>
        </mxCell>
        <mxCell id="i6zqhA7brKH_pSu2NshU-58" value="a = (-1)^k/2^(n+2+k)*k!*(k+n)!" style="rounded=1;whiteSpace=wrap;html=1;strokeColor=#000000;arcSize=50;" vertex="1" parent="1">
          <mxGeometry x="555.01" y="480" width="129.99" height="40" as="geometry" />
        </mxCell>
        <mxCell id="i6zqhA7brKH_pSu2NshU-61" style="edgeStyle=orthogonalEdgeStyle;rounded=0;orthogonalLoop=1;jettySize=auto;html=1;" edge="1" parent="1" source="i6zqhA7brKH_pSu2NshU-60" target="i6zqhA7brKH_pSu2NshU-62">
          <mxGeometry relative="1" as="geometry">
            <mxPoint x="620.17" y="640" as="targetPoint" />
          </mxGeometry>
        </mxCell>
        <mxCell id="i6zqhA7brKH_pSu2NshU-60" value="s += a" style="rounded=1;whiteSpace=wrap;html=1;strokeColor=#000000;arcSize=50;" vertex="1" parent="1">
          <mxGeometry x="570.17" y="560" width="100" height="30" as="geometry" />
        </mxCell>
        <mxCell id="i6zqhA7brKH_pSu2NshU-63" style="edgeStyle=orthogonalEdgeStyle;rounded=0;orthogonalLoop=1;jettySize=auto;html=1;" edge="1" parent="1" source="i6zqhA7brKH_pSu2NshU-62" target="i6zqhA7brKH_pSu2NshU-64">
          <mxGeometry relative="1" as="geometry">
            <mxPoint x="620.0100000000001" y="720" as="targetPoint" />
          </mxGeometry>
        </mxCell>
        <mxCell id="i6zqhA7brKH_pSu2NshU-62" value="k += 1" style="rounded=1;whiteSpace=wrap;html=1;strokeColor=#000000;arcSize=50;" vertex="1" parent="1">
          <mxGeometry x="567.47" y="640" width="105.08" height="30" as="geometry" />
        </mxCell>
        <mxCell id="i6zqhA7brKH_pSu2NshU-65" style="edgeStyle=orthogonalEdgeStyle;rounded=0;orthogonalLoop=1;jettySize=auto;html=1;exitX=0.5;exitY=1;exitDx=0;exitDy=0;" edge="1" parent="1" source="i6zqhA7brKH_pSu2NshU-64" target="i6zqhA7brKH_pSu2NshU-66">
          <mxGeometry relative="1" as="geometry">
            <mxPoint x="620" y="800" as="targetPoint" />
          </mxGeometry>
        </mxCell>
        <mxCell id="i6zqhA7brKH_pSu2NshU-64" value="" style="rhombus;whiteSpace=wrap;html=1;strokeColor=#000000;" vertex="1" parent="1">
          <mxGeometry x="600" y="720" width="40" height="40" as="geometry" />
        </mxCell>
        <mxCell id="i6zqhA7brKH_pSu2NshU-67" style="edgeStyle=orthogonalEdgeStyle;rounded=0;orthogonalLoop=1;jettySize=auto;html=1;" edge="1" parent="1" source="i6zqhA7brKH_pSu2NshU-66">
          <mxGeometry relative="1" as="geometry">
            <mxPoint x="620" y="880" as="targetPoint" />
          </mxGeometry>
        </mxCell>
        <mxCell id="i6zqhA7brKH_pSu2NshU-66" value="Вывод: A x1 x2" style="rounded=1;whiteSpace=wrap;html=1;strokeColor=#000000;arcSize=50;" vertex="1" parent="1">
          <mxGeometry x="580" y="806" width="80" height="34" as="geometry" />
        </mxCell>
        <mxCell id="i6zqhA7brKH_pSu2NshU-68" value="" style="ellipse;html=1;shape=endState;fillColor=#000000;strokeColor=#FF0000;" vertex="1" parent="1">
          <mxGeometry x="605" y="880" width="30" height="30" as="geometry" />
        </mxCell>
      </root>
    </mxGraphModel>
  </diagram>
</mxfile>
